<?xml version="1.0" encoding="utf-8"?>
<!-- Generator: Adobe Illustrator 25.2.0, SVG Export Plug-In . SVG Version: 6.00 Build 0)  -->
<svg version="1.1" xmlns="http://www.w3.org/2000/svg" xmlns:xlink="http://www.w3.org/1999/xlink" x="0px" y="0px"
	 viewBox="0 0 1920 1080" enable-background="new 0 0 1920 1080" xml:space="preserve">
<g id="patty">
	<g id="patty-1">
		<path fill="#9E7241" d="M535.44,440.5c-11.69,0-21.19-9.51-21.19-21.19v-52.62c0-11.69,9.51-21.19,21.19-21.19h794.62
			c11.68,0,21.19,9.51,21.19,21.19v52.62c0,11.69-9.51,21.19-21.19,21.19H535.44z"/>
		<path fill="#FFFFFF" d="M1330.06,346c11.41,0,20.69,9.28,20.69,20.69v52.62c0,11.41-9.28,20.69-20.69,20.69H535.44
			c-11.41,0-20.69-9.28-20.69-20.69v-52.62c0-11.41,9.28-20.69,20.69-20.69H1330.06 M1330.06,345H535.44
			c-11.98,0-21.69,9.71-21.69,21.69v52.62c0,11.98,9.71,21.69,21.69,21.69h794.62c11.98,0,21.69-9.71,21.69-21.69v-52.62
			C1351.75,354.71,1342.04,345,1330.06,345L1330.06,345z"/>
	</g>
</g>
<g id="cheese">
	<g id="cheese-1">
		<path fill="#E5E50C" d="M1351.75,366.69c0-7.07-3.39-13.35-8.62-17.31c-2.93-1.81-6.38-2.88-10.08-2.88h-800.6
			c-3.7,0-7.15,1.07-10.08,2.88c-5.24,3.96-8.62,10.24-8.62,17.31v5.9c0.1,0.44,0.23,0.88,0.36,1.31c-0.07,0.42-0.11,0.84-0.11,1.27
			v23.64c0,4.52,3.66,8.18,8.18,8.18h1.64c3.87,0,7.1-2.69,7.95-6.3c1.27,0.82,2.78,1.3,4.41,1.3h1.64c4.52,0,8.18-3.66,8.18-8.18
			v-6.32h12v14.32c0,4.52,3.66,8.18,8.18,8.18h1.64c4.52,0,8.18-3.66,8.18-8.18v-1.46c2.94-1.24,5-4.15,5-7.54v-5.32h20v3.32
			c0,4.52,3.66,8.18,8.18,8.18h1.64c0.06,0,0.12-0.01,0.18-0.01v0.83c0,4.52,3.66,8.18,8.18,8.18h1.64c4.52,0,8.18-3.66,8.18-8.18
			V387.5h16v11.32c0,4.52,3.66,8.18,8.18,8.18h1.64c4.52,0,8.18-3.66,8.18-8.18V396h0.82c4.52,0,8.18-3.66,8.18-8.18v-0.32h14v12.32
			c0,4.52,3.66,8.18,8.18,8.18h1.64c4.22,0,7.68-3.19,8.13-7.29c3.48-0.94,6.05-4.11,6.05-7.89v-5.32h23v5.32
			c0,4.52,3.66,8.18,8.18,8.18h1.64c1.97,0,3.77-0.69,5.18-1.85v2.67c0,4.52,3.66,8.18,8.18,8.18h1.64c4.52,0,8.18-3.66,8.18-8.18
			V387.5h14v9.32c0,4.52,3.66,8.18,8.18,8.18h1.64c4.18,0,7.63-3.14,8.11-7.2c1.24,0.75,2.69,1.2,4.24,1.2h1.64
			c2.47,0,4.68-1.1,6.18-2.83v8.65c0,4.52,3.66,8.18,8.18,8.18h1.64c4.52,0,8.18-3.66,8.18-8.18V387.5h14v14.32
			c0,4.52,3.66,8.18,8.18,8.18h1.64c4.46,0,8.07-3.57,8.17-8h0.83c4.52,0,8.18-3.66,8.18-8.18v-6.32h21v9.32
			c0,4.52,3.66,8.18,8.18,8.18h1.64c4.52,0,8.18-3.66,8.18-8.18v-0.98c1.22,0.73,2.65,1.16,4.18,1.16h1.64
			c4.52,0,8.18-3.66,8.18-8.18v-1.32h22v6.32c0,4.52,3.66,8.18,8.18,8.18H953v1.82c0,4.52,3.66,8.18,8.18,8.18h1.64
			c4.52,0,8.18-3.66,8.18-8.18V387.5h28v11.32c0,4.52,3.66,8.18,8.18,8.18h1.64c3.69,0,6.81-2.45,7.83-5.81
			c1.07,0.51,2.26,0.81,3.53,0.81h1.64c4.52,0,8.18-3.66,8.18-8.18v-6.32h14v17.32c0,4.52,3.66,8.18,8.18,8.18h1.64
			c4.52,0,8.18-3.66,8.18-8.18v-2.08c1.39,2.54,4.08,4.26,7.18,4.26h1.64c4.52,0,8.18-3.66,8.18-8.18V387.5h12v17.32
			c0,4.52,3.66,8.18,8.18,8.18h1.64c4.46,0,8.08-3.57,8.17-8.01c0.06,0,0.12,0.01,0.19,0.01h1.64c4.52,0,8.18-3.66,8.18-8.18v-9.32
			h12v11.32c0,4.52,3.66,8.18,8.18,8.18h1.64c1.18,0,2.3-0.26,3.32-0.71c0.69,3.81,4.03,6.71,8.04,6.71h1.64
			c4.52,0,8.18-3.66,8.18-8.18V387.5h11v14.32c0,4.52,3.66,8.18,8.18,8.18h1.64c4.52,0,8.18-3.66,8.18-8.18V387.5h44v4.32
			c0,4.52,3.66,8.18,8.18,8.18h1.64c1.14,0,2.22-0.23,3.21-0.65c0.27,4.27,3.81,7.65,8.15,7.65h1.64c4.52,0,8.18-3.66,8.18-8.18
			V387.5h5v7.32c0,4.52,3.66,8.18,8.18,8.18h1.64c4.52,0,8.18-3.66,8.18-8.18v-7.32h16v6.32c0,4.52,3.66,8.18,8.18,8.18h1.64
			c4.12,0,7.51-3.04,8.08-7h0.92c4.29,0,7.8-3.3,8.14-7.5h0.03v11.32c0,4.52,3.66,8.18,8.18,8.18h1.64c4.52,0,8.18-3.66,8.18-8.18
			v-21.54c0.77-1.46,1.37-3.03,1.75-4.68V366.69z"/>
		<path fill="none" d="M1333.05,347.5c3.35,0,6.64,0.94,9.51,2.71c5.2,3.95,8.19,9.96,8.19,16.49v5.79
			c-0.35,1.49-0.9,2.95-1.63,4.33l-0.12,0.22v0.25v21.54c0,3.96-3.22,7.18-7.18,7.18h-1.64c-3.96,0-7.18-3.22-7.18-7.18V387.5
			l-0.03-1h-1h-0.92l-0.08,0.92c-0.3,3.69-3.44,6.58-7.15,6.58h-0.92h-0.87l-0.12,0.86c-0.51,3.5-3.56,6.14-7.09,6.14h-1.64
			c-3.96,0-7.18-3.22-7.18-7.18v-6.32v-1h-1h-16h-1v1v7.32c0,3.96-3.22,7.18-7.18,7.18h-1.64c-3.96,0-7.18-3.22-7.18-7.18v-7.32v-1
			h-1h-5h-1v1v11.32c0,3.96-3.22,7.18-7.18,7.18h-1.64c-3.77,0-6.91-2.95-7.15-6.72l-0.09-1.41l-1.3,0.55
			c-0.89,0.38-1.84,0.57-2.81,0.57h-1.64c-3.96,0-7.18-3.22-7.18-7.18v-4.32v-1h-1h-44h-1v1v14.32c0,3.96-3.22,7.18-7.18,7.18h-1.64
			c-3.96,0-7.18-3.22-7.18-7.18V387.5v-1h-1h-11h-1v1v17.32c0,3.96-3.22,7.18-7.18,7.18h-1.64c-3.47,0-6.44-2.48-7.06-5.89
			l-0.23-1.25l-1.16,0.52c-0.93,0.41-1.91,0.62-2.91,0.62h-1.64c-3.96,0-7.18-3.22-7.18-7.18V387.5v-1h-1h-12h-1v1v9.32
			c0,3.96-3.22,7.18-7.18,7.18l-1.67,0c-0.04,0-0.09-0.01-0.13-0.01l-1-0.02l-0.02,1c-0.08,3.88-3.3,7.03-7.17,7.03h-1.64
			c-3.96,0-7.18-3.22-7.18-7.18V387.5v-1h-1h-12h-1v1v11.32c0,3.96-3.22,7.18-7.18,7.18h-1.64c-2.62,0-5.04-1.43-6.3-3.74
			l-1.88-3.43v3.91v2.08c0,3.96-3.22,7.18-7.18,7.18h-1.64c-3.96,0-7.18-3.22-7.18-7.18V387.5v-1h-1h-14h-1v1v6.32
			c0,3.96-3.22,7.18-7.18,7.18h-1.64c-1.07,0-2.11-0.24-3.1-0.71l-1.05-0.51l-0.34,1.12c-0.91,3-3.73,5.1-6.87,5.1h-1.64
			c-3.96,0-7.18-3.22-7.18-7.18V387.5v-1h-1h-28h-1v1v16.32c0,3.96-3.22,7.18-7.18,7.18h-1.64c-3.96,0-7.18-3.22-7.18-7.18V402v-1
			h-1h-0.82c-3.96,0-7.18-3.22-7.18-7.18v-6.32v-1h-1h-22h-1v1v1.32c0,3.96-3.22,7.18-7.18,7.18h-1.64c-1.28,0-2.55-0.35-3.67-1.02
			l-1.51-0.9v1.76v0.98c0,3.96-3.22,7.18-7.18,7.18h-1.64c-3.96,0-7.18-3.22-7.18-7.18v-9.32v-1h-1h-21h-1v1v6.32
			c0,3.96-3.22,7.18-7.18,7.18h-0.83h-0.98l-0.02,0.98c-0.08,3.87-3.3,7.02-7.17,7.02h-1.64c-3.96,0-7.18-3.22-7.18-7.18V387.5v-1
			h-1h-14h-1v1v17.32c0,3.96-3.22,7.18-7.18,7.18h-1.64c-3.96,0-7.18-3.22-7.18-7.18v-8.65v-2.68l-1.76,2.03
			c-1.37,1.58-3.34,2.49-5.42,2.49h-1.64c-1.31,0-2.59-0.36-3.72-1.05l-1.33-0.81l-0.19,1.54c-0.43,3.6-3.49,6.32-7.12,6.32h-1.64
			c-3.96,0-7.18-3.22-7.18-7.18v-9.32v-1h-1h-14h-1v1v14.32c0,3.96-3.22,7.18-7.18,7.18h-1.64c-3.96,0-7.18-3.22-7.18-7.18v-2.67
			v-2.11l-1.63,1.34c-1.28,1.05-2.89,1.62-4.54,1.62h-1.64c-3.96,0-7.18-3.22-7.18-7.18v-5.32v-1h-1h-23h-1v1v5.32
			c0,3.23-2.18,6.08-5.31,6.92l-0.66,0.18l-0.07,0.68c-0.39,3.65-3.46,6.4-7.13,6.4h-1.64c-3.96,0-7.18-3.22-7.18-7.18V387.5v-1h-1
			h-14h-1v1v0.32c0,3.96-3.22,7.18-7.18,7.18H663h-1v1v2.82c0,3.96-3.22,7.18-7.18,7.18h-1.64c-3.96,0-7.18-3.22-7.18-7.18V387.5v-1
			h-1h-16h-1v1v12.32c0,3.96-3.22,7.18-7.18,7.18h-1.64c-3.96,0-7.18-3.22-7.18-7.18v-0.83v-1.02l-1.02,0.02
			c-0.04,0-0.09,0-0.16,0.01h-1.64c-3.96,0-7.18-3.22-7.18-7.18v-3.32v-1h-1h-20h-1v1v5.32c0,2.89-1.72,5.49-4.39,6.62L575,399.7
			v0.66v1.46c0,3.96-3.22,7.18-7.18,7.18h-1.64c-3.96,0-7.18-3.22-7.18-7.18V387.5v-1h-1h-12h-1v1v6.32c0,3.96-3.22,7.18-7.18,7.18
			h-1.64c-1.37,0-2.71-0.39-3.87-1.14l-1.19-0.76l-0.32,1.37c-0.77,3.25-3.64,5.52-6.98,5.52h-1.64c-3.96,0-7.18-3.22-7.18-7.18
			v-23.64c0-0.34,0.03-0.7,0.1-1.12l0.04-0.23l-0.07-0.22c-0.1-0.34-0.22-0.73-0.32-1.13v-5.79c0-6.53,2.98-12.53,8.19-16.49
			c2.88-1.77,6.17-2.71,9.51-2.71H1333.05 M1333.05,346.5h-800.6c-3.7,0-7.15,1.07-10.08,2.88c-5.24,3.96-8.62,10.24-8.62,17.31v5.9
			c0.1,0.44,0.23,0.88,0.36,1.31c-0.07,0.42-0.11,0.84-0.11,1.27v23.64c0,4.52,3.66,8.18,8.18,8.18h1.64c3.87,0,7.1-2.69,7.95-6.3
			c1.27,0.82,2.78,1.3,4.41,1.3h1.64c4.52,0,8.18-3.66,8.18-8.18v-6.32h12v14.32c0,4.52,3.66,8.18,8.18,8.18h1.64
			c4.52,0,8.18-3.66,8.18-8.18v-1.46c2.94-1.24,5-4.15,5-7.54v-5.32h20v3.32c0,4.52,3.66,8.18,8.18,8.18h1.64
			c0.06,0,0.12-0.01,0.18-0.01v0.83c0,4.52,3.66,8.18,8.18,8.18h1.64c4.52,0,8.18-3.66,8.18-8.18V387.5h16v11.32
			c0,4.52,3.66,8.18,8.18,8.18h1.64c4.52,0,8.18-3.66,8.18-8.18V396h0.82c4.52,0,8.18-3.66,8.18-8.18v-0.32h14v12.32
			c0,4.52,3.66,8.18,8.18,8.18h1.64c4.22,0,7.68-3.19,8.13-7.29c3.48-0.94,6.05-4.11,6.05-7.89v-5.32h23v5.32
			c0,4.52,3.66,8.18,8.18,8.18h1.64c1.97,0,3.77-0.69,5.18-1.85v2.67c0,4.52,3.66,8.18,8.18,8.18h1.64c4.52,0,8.18-3.66,8.18-8.18
			V387.5h14v9.32c0,4.52,3.66,8.18,8.18,8.18h1.64c4.18,0,7.63-3.14,8.11-7.2c1.24,0.75,2.69,1.2,4.24,1.2h1.64
			c2.47,0,4.68-1.1,6.18-2.83v8.65c0,4.52,3.66,8.18,8.18,8.18h1.64c4.52,0,8.18-3.66,8.18-8.18V387.5h14v14.32
			c0,4.52,3.66,8.18,8.18,8.18h1.64c4.46,0,8.07-3.57,8.17-8h0.83c4.52,0,8.18-3.66,8.18-8.18v-6.32h21v9.32
			c0,4.52,3.66,8.18,8.18,8.18h1.64c4.52,0,8.18-3.66,8.18-8.18v-0.98c1.22,0.73,2.65,1.16,4.18,1.16h1.64
			c4.52,0,8.18-3.66,8.18-8.18v-1.32h22v6.32c0,4.52,3.66,8.18,8.18,8.18H953v1.82c0,4.52,3.66,8.18,8.18,8.18h1.64
			c4.52,0,8.18-3.66,8.18-8.18V387.5h28v11.32c0,4.52,3.66,8.18,8.18,8.18h1.64c3.69,0,6.81-2.45,7.83-5.81
			c1.07,0.51,2.26,0.81,3.53,0.81h1.64c4.52,0,8.18-3.66,8.18-8.18v-6.32h14v17.32c0,4.52,3.66,8.18,8.18,8.18h1.64
			c4.52,0,8.18-3.66,8.18-8.18v-2.08c1.39,2.54,4.08,4.26,7.18,4.26h1.64c4.52,0,8.18-3.66,8.18-8.18V387.5h12v17.32
			c0,4.52,3.66,8.18,8.18,8.18h1.64c4.46,0,8.08-3.57,8.17-8.01c0.06,0,0.12,0.01,0.19,0.01h1.64c4.52,0,8.18-3.66,8.18-8.18v-9.32
			h12v11.32c0,4.52,3.66,8.18,8.18,8.18h1.64c1.18,0,2.3-0.26,3.32-0.71c0.69,3.81,4.03,6.71,8.04,6.71h1.64
			c4.52,0,8.18-3.66,8.18-8.18V387.5h11v14.32c0,4.52,3.66,8.18,8.18,8.18h1.64c4.52,0,8.18-3.66,8.18-8.18V387.5h44v4.32
			c0,4.52,3.66,8.18,8.18,8.18h1.64c1.14,0,2.22-0.23,3.21-0.65c0.27,4.27,3.81,7.65,8.15,7.65h1.64c4.52,0,8.18-3.66,8.18-8.18
			V387.5h5v7.32c0,4.52,3.66,8.18,8.18,8.18h1.64c4.52,0,8.18-3.66,8.18-8.18v-7.32h16v6.32c0,4.52,3.66,8.18,8.18,8.18h1.64
			c4.12,0,7.51-3.04,8.08-7h0.92c4.29,0,7.8-3.3,8.14-7.5h0.03v11.32c0,4.52,3.66,8.18,8.18,8.18h1.64c4.52,0,8.18-3.66,8.18-8.18
			v-21.54c0.77-1.46,1.37-3.03,1.75-4.68v-5.9c0-7.07-3.39-13.35-8.62-17.31C1340.19,347.57,1336.75,346.5,1333.05,346.5
			L1333.05,346.5z"/>
	</g>
</g>
<g id="ketchup">
	<path id="ketchup-seg_19_" fill="#FF2A17" d="M886.5,389L886.5,389c-4.14,0-7.5-3.36-7.5-7.5v-13c0-4.14,3.36-7.5,7.5-7.5l0,0
		c4.14,0,7.5,3.36,7.5,7.5v13C894,385.64,890.64,389,886.5,389z"/>
	<path id="ketchup-seg_18_" fill="#FF2A17" d="M794.5,391L794.5,391c-4.14,0-7.5-3.36-7.5-7.5v-13c0-4.14,3.36-7.5,7.5-7.5l0,0
		c4.14,0,7.5,3.36,7.5,7.5v13C802,387.64,798.64,391,794.5,391z"/>
	<path id="ketchup-seg_17_" fill="#FF2A17" d="M663.5,386L663.5,386c-4.14,0-7.5-3.36-7.5-7.5v-13c0-4.14,3.36-7.5,7.5-7.5l0,0
		c4.14,0,7.5,3.36,7.5,7.5v13C671,382.64,667.64,386,663.5,386z"/>
	<path id="ketchup-seg_16_" fill="#FF2A17" d="M1183.09,394h-3.18c-3.26,0-5.91-2.65-5.91-5.91v-16.18c0-3.26,2.65-5.91,5.91-5.91
		h3.18c3.26,0,5.91,2.65,5.91,5.91v16.18C1189,391.35,1186.35,394,1183.09,394z"/>
	<path id="ketchup-seg_15_" fill="#FF2A17" d="M607.5,396L607.5,396c-4.14,0-7.5-3.36-7.5-7.5v-13c0-4.14,3.36-7.5,7.5-7.5l0,0
		c4.14,0,7.5,3.36,7.5,7.5v13C615,392.64,611.64,396,607.5,396z"/>
	<path id="ketchup-seg_14_" fill="#FF2A17" d="M658.5,393L658.5,393c-4.14,0-7.5-3.36-7.5-7.5v-13c0-4.14,3.36-7.5,7.5-7.5l0,0
		c4.14,0,7.5,3.36,7.5,7.5v13C666,389.64,662.64,393,658.5,393z"/>
	<path id="ketchup-seg_13_" fill="#FF2A17" d="M803.5,386L803.5,386c-4.14,0-7.5-3.36-7.5-7.5v-13c0-4.14,3.36-7.5,7.5-7.5l0,0
		c4.14,0,7.5,3.36,7.5,7.5v13C811,382.64,807.64,386,803.5,386z"/>
	<path id="ketchup-seg_12_" fill="#FF2A17" d="M899.5,394L899.5,394c-4.14,0-7.5-3.36-7.5-7.5v-13c0-4.14,3.36-7.5,7.5-7.5l0,0
		c4.14,0,7.5,3.36,7.5,7.5v13C907,390.64,903.64,394,899.5,394z"/>
	<path id="ketchup-seg_11_" fill="#FF2A17" d="M960.5,387L960.5,387c-4.14,0-7.5-3.36-7.5-7.5v-13c0-4.14,3.36-7.5,7.5-7.5l0,0
		c4.14,0,7.5,3.36,7.5,7.5v13C968,383.64,964.64,387,960.5,387z"/>
	<path id="ketchup-seg_10_" fill="#FF2A17" d="M957.5,391L957.5,391c-4.14,0-7.5-3.36-7.5-7.5v-13c0-4.14,3.36-7.5,7.5-7.5l0,0
		c4.14,0,7.5,3.36,7.5,7.5v13C965,387.64,961.64,391,957.5,391z"/>
	<path id="ketchup-seg_9_" fill="#FF2A17" d="M992.5,389L992.5,389c-4.14,0-7.5-3.36-7.5-7.5v-13c0-4.14,3.36-7.5,7.5-7.5l0,0
		c4.14,0,7.5,3.36,7.5,7.5v13C1000,385.64,996.64,389,992.5,389z"/>
	<path id="ketchup-seg_8_" fill="#FF2A17" d="M1022.5,389L1022.5,389c-4.14,0-7.5-3.36-7.5-7.5v-13c0-4.14,3.36-7.5,7.5-7.5l0,0
		c4.14,0,7.5,3.36,7.5,7.5v13C1030,385.64,1026.64,389,1022.5,389z"/>
	<path id="ketchup-seg_7_" fill="#FF2A17" d="M1014.5,397L1014.5,397c-4.14,0-7.5-3.36-7.5-7.5v-13c0-4.14,3.36-7.5,7.5-7.5l0,0
		c4.14,0,7.5,3.36,7.5,7.5v13C1022,393.64,1018.64,397,1014.5,397z"/>
	<path id="ketchup-seg_6_" fill="#FF2A17" d="M1058.09,397h-3.18c-3.26,0-5.91-2.65-5.91-5.91v-16.18c0-3.26,2.65-5.91,5.91-5.91
		h3.18c3.26,0,5.91,2.65,5.91,5.91v16.18C1064,394.35,1061.35,397,1058.09,397z"/>
	<path id="ketchup-seg_5_" fill="#FF2A17" d="M1098.09,387h-3.18c-3.26,0-5.91-2.65-5.91-5.91v-16.18c0-3.26,2.65-5.91,5.91-5.91
		h3.18c3.26,0,5.91,2.65,5.91,5.91v16.18C1104,384.35,1101.35,387,1098.09,387z"/>
	<path id="ketchup-seg_4_" fill="#FF2A17" d="M1102.09,394h-3.18c-3.26,0-5.91-2.65-5.91-5.91v-16.18c0-3.26,2.65-5.91,5.91-5.91
		h3.18c3.26,0,5.91,2.65,5.91,5.91v16.18C1108,391.35,1105.35,394,1102.09,394z"/>
	<path id="ketchup-seg_3_" fill="#FF2A17" d="M1127.09,386h-3.18c-3.26,0-5.91-2.65-5.91-5.91v-16.18c0-3.26,2.65-5.91,5.91-5.91
		h3.18c3.26,0,5.91,2.65,5.91,5.91v16.18C1133,383.35,1130.35,386,1127.09,386z"/>
	<path id="ketchup-seg_2_" fill="#FF2A17" d="M1141.09,390h-3.18c-3.26,0-5.91-2.65-5.91-5.91v-16.18c0-3.26,2.65-5.91,5.91-5.91
		h3.18c3.26,0,5.91,2.65,5.91,5.91v16.18C1147,387.35,1144.35,390,1141.09,390z"/>
	<path id="ketchup-seg_1_" fill="#FF2A17" d="M1258.09,386h-3.18c-3.26,0-5.91-2.65-5.91-5.91v-16.18c0-3.26,2.65-5.91,5.91-5.91
		h3.18c3.26,0,5.91,2.65,5.91,5.91v16.18C1264,383.35,1261.35,386,1258.09,386z"/>
	<rect id="ketchup-seg" x="1256" y="355" fill="#FF2A17" width="15" height="28"/>
</g>
<g id="lettuce_1_">
	<path id="lettuce-1" fill="#4FC671" stroke="#FFFFFF" stroke-miterlimit="10" d="M1313.86,346.5h-79h-18.71h-76.29h-2.71h-91.29
		h-3.71h-91.29h-2.71h-95c-0.39,0-0.77,0.03-1.14,0.07c-0.38-0.04-0.76-0.07-1.14-0.07h-97.71c-1.1,0-2.16,0.19-3.14,0.53
		c-0.99-0.34-2.04-0.53-3.14-0.53h-97.71c-1.29,0-2.52,0.26-3.64,0.72c-1.12-0.46-2.35-0.72-3.64-0.72h-97.71
		c-5.33,0-9.64,4.32-9.64,9.64v8.71c0,5.33,4.32,9.64,9.64,9.64h94.57c0.31,0,0.62-0.02,0.93-0.05c0.76,4.56,4.72,8.05,9.5,8.05
		h94.57c5.37,0,9.96-3.31,11.85-8h88.08c0.78,4.54,4.73,8,9.49,8h94.57c3.65,0,6.94-1.54,9.27-4h85.73c4.98,0,9.28-2.85,11.39-7
		h73.77c1.15,4.04,4.86,7,9.27,7h94.57c4.98,0,9.28-2.85,11.39-7h67.61c7.06,0,12.79-5.72,12.79-12.79v-2.57
		C1323.5,350.82,1319.18,346.5,1313.86,346.5z"/>
</g>
<g id="bun">
	<g id="bun-top">
		<path fill="#CCB266" d="M543.3,346.5c14.05-39,60.51-74.8,130.95-100.88C745.9,219.1,837.7,204.5,932.75,204.5
			c95.05,0,186.85,14.6,258.5,41.12c70.44,26.07,116.91,61.88,130.95,100.88H543.3z"/>
		<path fill="#FFFFFF" d="M932.75,205c94.99,0,186.73,14.59,258.32,41.09c69.9,25.87,116.13,61.31,130.41,99.91H544.02
			c14.28-38.6,60.51-74.04,130.41-99.91C746.02,219.59,837.76,205,932.75,205 M932.75,204c-197.93,0-361.8,62.07-390.16,143h780.31
			C1294.55,266.07,1130.68,204,932.75,204L932.75,204z"/>
	</g>
	<g id="bun-bottom">
		<path fill="#CCB266" d="M557.9,525.5c-8.36,0-15.15-6.8-15.15-15.15V433.5h780v76.81c0,8.38-6.82,15.19-15.19,15.19H557.9z"/>
		<path fill="#FFFFFF" d="M1322.25,434v76.31c0,8.1-6.59,14.69-14.69,14.69H557.9c-8.08,0-14.65-6.57-14.65-14.65V434H1322.25
			 M1323.25,433h-781v77.35c0,8.65,7.01,15.65,15.65,15.65h749.65c8.67,0,15.69-7.03,15.69-15.69V433L1323.25,433z"/>
	</g>
</g>
<g id="seeds">
	<ellipse id="seed_11_" fill="#EFEDED" cx="636.5" cy="301" rx="21.5" ry="5"/>
	<ellipse id="seed_10_" fill="#EFEDED" cx="754.5" cy="262" rx="21.5" ry="5"/>
	<ellipse id="seed_9_" fill="#EFEDED" cx="857.5" cy="257" rx="21.5" ry="5"/>
	<ellipse id="seed_8_" fill="#EFEDED" cx="1154.5" cy="267" rx="21.5" ry="5"/>
	<ellipse id="seed_7_" fill="#EFEDED" cx="1077.5" cy="286" rx="21.5" ry="5"/>
	<ellipse id="seed_6_" fill="#EFEDED" cx="1043.5" cy="252" rx="21.5" ry="5"/>
	<ellipse id="seed_5_" fill="#EFEDED" cx="1234.5" cy="322" rx="21.5" ry="5"/>
	<ellipse id="seed_4_" fill="#EFEDED" cx="985.5" cy="296" rx="21.5" ry="5"/>
	<ellipse id="seed_3_" fill="#EFEDED" cx="957.5" cy="262" rx="21.5" ry="5"/>
	<ellipse id="seed_2_" fill="#EFEDED" cx="1146.5" cy="307" rx="21.5" ry="5"/>
	<ellipse id="seed_1_" fill="#EFEDED" cx="899.5" cy="306" rx="21.5" ry="5"/>
	<ellipse id="seed" fill="#EFEDED" cx="776.5" cy="307" rx="21.5" ry="5"/>
</g>
</svg>
